<svg width="71" height="71" viewBox="0 0 71 71" fill="none" xmlns="http://www.w3.org/2000/svg">
  <circle cx="35.2218" cy="35.7686" r="35.2218" fill="white" />
  <path d="M34.8371 27.4639C35.18 27.0108 35.522 26.5887 35.8666 26.1932C36.2113 25.7978 36.5584 25.429 36.9047 25.0912C37.251 24.7533 37.5992 24.4345 37.9465 24.1467C38.2937 23.8588 38.6393 23.5942 38.9875 23.3563C39.3356 23.1184 39.6783 22.9041 40.0232 22.7128C40.3681 22.5214 40.7113 22.3533 41.049 22.2088C41.3906 22.064 41.7267 21.9428 42.0607 21.8411C42.3948 21.7394 42.7272 21.6609 43.0576 21.6019C43.3879 21.5428 43.7124 21.5036 44.031 21.4842C44.3496 21.4649 44.6661 21.465 44.9768 21.4849C45.2875 21.5048 45.5919 21.5407 45.8943 21.5961C46.1929 21.6518 46.489 21.7232 46.775 21.811C47.061 21.8988 47.345 22.006 47.6184 22.1258C47.8919 22.2456 48.1591 22.3814 48.4201 22.5333C48.681 22.6851 48.9315 22.8495 49.1714 23.0265C49.4152 23.203 49.6489 23.396 49.872 23.6016C50.0952 23.8072 50.3114 24.0211 50.5174 24.2514C50.7231 24.4779 50.9183 24.717 51.1029 24.9687C51.2872 25.2165 51.4609 25.4769 51.62 25.7464C51.7829 26.0156 51.9311 26.2939 52.0684 26.581C52.2057 26.868 52.3321 27.1639 52.4438 27.4688C52.5555 27.7738 52.6558 28.0837 52.7411 28.3989C52.8264 28.7141 52.9009 29.0381 52.9563 29.3677C53.0156 29.697 53.0599 30.0316 53.0886 30.3677C53.1177 30.7077 53.1312 31.0491 53.1297 31.3958C53.1282 31.7426 53.1112 32.0908 53.0748 32.4409C53.0385 32.7911 52.9909 33.1462 52.9197 33.4997C52.8523 33.8528 52.7659 34.2116 52.6638 34.5681C52.5616 34.9246 52.4401 35.2831 52.2988 35.6395C52.1575 35.996 52.0004 36.3501 51.8239 36.7061C51.647 37.0583 51.4508 37.4125 51.2306 37.7612C51.0143 38.1095 50.7745 38.4563 50.5187 38.8007C50.3836 38.9795 50.2485 39.1581 50.1204 39.3284C49.9885 39.4991 49.864 39.6653 49.7352 39.828C49.6102 39.9903 49.4849 40.1488 49.3634 40.307C49.2416 40.4613 49.1237 40.6152 49.005 40.7615C48.8863 40.9078 48.7715 41.0537 48.6567 41.1996C48.5419 41.3456 48.4264 41.4839 48.3147 41.6218C48.203 41.7597 48.0871 41.8943 47.9751 42.0284C47.863 42.1625 47.7506 42.2927 47.6382 42.423C47.5258 42.5533 47.4133 42.6836 47.3005 42.8101C47.1877 42.9366 47.0753 43.0669 46.9625 43.1933C46.8498 43.3198 46.737 43.4463 46.6203 43.5732C46.5037 43.7 46.3909 43.8265 46.27 43.9499C46.1533 44.0768 46.0328 44.204 45.9123 44.3313C45.7917 44.4585 45.6673 44.5861 45.5429 44.7137C45.4185 44.8413 45.2907 44.9731 45.1628 45.1049C45.0349 45.2367 44.9031 45.3689 44.7678 45.5052C44.6325 45.6416 44.4973 45.7779 44.3546 45.9189C44.212 46.0598 44.0694 46.2007 43.9232 46.3459C43.7771 46.491 43.6235 46.6407 43.47 46.7904C43.3165 46.9401 43.1559 47.0981 42.9915 47.2566C42.8271 47.415 42.6593 47.5777 42.4879 47.7445C42.3165 47.9113 42.1377 48.0827 41.9554 48.2583C41.7731 48.4339 41.5873 48.6136 41.3942 48.798C41.201 48.9823 41.0043 49.1709 40.8007 49.3678C40.597 49.5647 40.3857 49.7624 40.1716 49.9718C39.957 50.1775 39.7316 50.3919 39.5066 50.6102C39.2777 50.8288 39.0418 51.0558 38.8024 51.287C38.5591 51.5186 38.3126 51.7582 38.055 52.0027C37.7973 52.2472 37.5365 52.4997 37.2649 52.761C36.9932 53.0223 36.7142 53.2882 36.4285 53.5662C36.1425 53.8404 35.8459 54.1272 35.5459 54.4182C35.242 54.7096 34.9315 55.0132 34.6136 55.3213C34.6136 55.3213 34.5965 55.3075 34.5626 55.28C34.5287 55.2525 34.4817 55.2109 34.4177 55.1555C34.3537 55.1 34.2766 55.0305 34.1868 54.9507C34.0969 54.8708 33.994 54.7768 33.8745 54.6729C33.7589 54.5686 33.6301 54.4501 33.489 54.3252C33.3479 54.2002 33.1972 54.057 33.0345 53.911C32.8715 53.7612 32.6996 53.6008 32.5192 53.4334C32.3384 53.2623 32.1454 53.0846 31.9473 52.8959C31.7492 52.7071 31.5387 52.5119 31.3233 52.3056C31.1078 52.0993 30.884 51.8861 30.6551 51.6618C30.4266 51.4414 30.1891 51.2103 29.9471 50.9719C29.7051 50.7335 29.4589 50.4917 29.2077 50.2388C28.9569 49.9897 28.701 49.7295 28.4413 49.4697C28.1816 49.21 27.9208 48.9388 27.6518 48.6645C27.3868 48.3898 27.1176 48.1117 26.8479 47.8298C26.5782 47.5479 26.3078 47.2583 26.0374 46.9688C25.767 46.6792 25.4959 46.3821 25.2247 46.0849C24.9536 45.7877 24.682 45.4867 24.414 45.1816C24.146 44.8764 23.8779 44.5712 23.6095 44.2622C23.3412 43.9532 23.0806 43.6434 22.82 43.3337C22.5593 43.0239 22.306 42.7096 22.053 42.3991C21.8002 42.0886 21.5547 41.7735 21.3134 41.4619C21.0721 41.1503 20.8346 40.8383 20.605 40.5255C20.3753 40.2128 20.1499 39.9035 19.9361 39.593C19.7184 39.283 19.5127 38.9756 19.3113 38.6716C19.1098 38.3677 18.92 38.0626 18.7383 37.7606C18.5565 37.4586 18.3832 37.1635 18.2216 36.8673C18.0604 36.5748 17.9069 36.2816 17.7657 35.9949C17.6245 35.7083 17.4957 35.4281 17.3789 35.1506C17.2621 34.8731 17.1576 34.6021 17.0651 34.3338C16.9726 34.0655 16.8968 33.8071 16.8329 33.5514C16.769 33.2958 16.7213 33.0462 16.6864 32.807C16.6391 32.4804 16.608 32.1599 16.5892 31.8459C16.5701 31.5281 16.5594 31.2173 16.5647 30.9087C16.5699 30.6001 16.5836 30.2984 16.6132 29.999C16.6428 29.6996 16.6769 29.4074 16.7273 29.1214C16.7777 28.8354 16.8362 28.5524 16.9075 28.2798C16.9783 28.0033 17.0581 27.7375 17.1498 27.4745C17.2415 27.2114 17.3417 26.9552 17.4504 26.7059C17.5591 26.4565 17.6763 26.2141 17.8058 25.9782C17.9353 25.7423 18.0698 25.5174 18.2124 25.2956C18.355 25.0738 18.5064 24.8627 18.6664 24.6585C18.8263 24.4543 18.9948 24.2569 19.1682 24.0706C19.3417 23.8843 19.5236 23.7049 19.7143 23.5362C19.9012 23.3679 20.0966 23.2065 20.3008 23.0557C20.5011 22.9053 20.7099 22.7618 20.9238 22.6294C21.1376 22.4969 21.3564 22.3755 21.5798 22.2614C21.8036 22.1511 22.032 22.0481 22.2654 21.9561C22.4988 21.8642 22.7371 21.7833 22.9766 21.7138C23.2199 21.644 23.4644 21.5856 23.7139 21.5383C23.9633 21.491 24.2177 21.4547 24.4736 21.4337C24.7292 21.4089 24.99 21.399 25.2482 21.4009C25.5101 21.4025 25.7733 21.4155 26.0375 21.4399C26.3017 21.4643 26.5713 21.5036 26.842 21.5544C27.1126 21.6051 27.3809 21.6715 27.6542 21.7489C27.9275 21.8264 28.1984 21.9195 28.4704 22.024C28.7423 22.1285 29.0157 22.2483 29.2907 22.3834C29.5656 22.5185 29.8379 22.6653 30.112 22.8313C30.3856 22.9934 30.6573 23.1751 30.9262 23.3685C31.1989 23.5615 31.4654 23.7706 31.7334 23.9949C32.0014 24.2192 32.267 24.4591 32.5341 24.7143C32.7973 24.9699 33.0623 25.2446 33.3207 25.5315C33.5791 25.8183 33.8355 26.1246 34.0899 26.4504C34.3439 26.7723 34.596 27.1137 34.8413 27.4673L34.8371 27.4639Z" fill="#D98097" />
</svg>