<svg width="73" height="68" viewBox="0 0 73 68" fill="none" xmlns="http://www.w3.org/2000/svg">
<path d="M36.7407 12.1134C37.4174 11.2194 38.0922 10.3864 38.7722 9.60607C39.4523 8.82577 40.1373 8.09818 40.8207 7.43154C41.504 6.76489 42.1911 6.13583 42.8762 5.56779C43.5614 4.99976 44.2433 4.4777 44.9303 4.00828C45.6173 3.53885 46.2935 3.11604 46.9741 2.73843C47.6546 2.36082 48.3319 2.02909 48.9982 1.74404C49.6723 1.45825 50.3353 1.21915 50.9945 1.0184C51.6536 0.817645 52.3096 0.662796 52.9615 0.546334C53.6134 0.429871 54.2537 0.352487 54.8823 0.314271C55.5109 0.276056 56.1355 0.276221 56.7486 0.315511C57.3616 0.354801 57.9623 0.425697 58.559 0.534964C59.1481 0.644974 59.7324 0.785862 60.2967 0.959062C60.861 1.13226 61.4214 1.34386 61.9611 1.58025C62.5007 1.81664 63.0279 2.08464 63.5428 2.38422C64.0577 2.6838 64.5519 3.00817 65.0254 3.35737C65.5065 3.70582 65.9675 4.08666 66.4079 4.49226C66.8482 4.89787 67.2748 5.31999 67.6813 5.77447C68.0872 6.22142 68.4723 6.69318 68.8367 7.18975C69.2003 7.67879 69.5431 8.19258 69.857 8.72445C70.1784 9.25558 70.4709 9.80474 70.7418 10.3712C71.0127 10.9376 71.2621 11.5213 71.4825 12.1231C71.7028 12.7248 71.9008 13.3363 72.0692 13.9583C72.2375 14.5803 72.3844 15.2196 72.4938 15.8701C72.6109 16.5198 72.6981 17.1801 72.7548 17.8433C72.8122 18.514 72.8389 19.1877 72.8359 19.8719C72.8329 20.5561 72.7994 21.2432 72.7276 21.9341C72.6559 22.625 72.562 23.3257 72.4215 24.0232C72.2886 24.72 72.1182 25.4281 71.9165 26.1315C71.7149 26.835 71.4751 27.5423 71.1964 28.2456C70.9176 28.949 70.6076 29.6477 70.2593 30.3503C69.9103 31.0452 69.5232 31.744 69.0887 32.4321C68.6618 33.1194 68.1886 33.8037 67.6839 34.4834C67.4173 34.836 67.1507 35.1886 66.898 35.5247C66.6376 35.8615 66.3919 36.1894 66.1378 36.5104C65.8912 36.8307 65.6439 37.1435 65.4043 37.4555C65.164 37.76 64.9312 38.0637 64.697 38.3524C64.4629 38.6411 64.2363 38.929 64.0098 39.2169C63.7832 39.5049 63.5553 39.7778 63.3349 40.05C63.1146 40.3221 62.8858 40.5875 62.6648 40.8522C62.4437 41.1168 62.2219 41.3738 62.0001 41.6309C61.7782 41.888 61.5563 42.1452 61.3337 42.3948C61.1112 42.6443 60.8894 42.9014 60.6668 43.1509C60.4443 43.4005 60.2217 43.6501 59.9916 43.9004C59.7614 44.1507 59.5388 44.4003 59.3003 44.6438C59.0701 44.8941 58.8322 45.1452 58.5944 45.3963C58.3566 45.6473 58.1111 45.8991 57.8656 46.1509C57.6202 46.4027 57.3679 46.6627 57.1155 46.9228C56.8631 47.1828 56.6031 47.4437 56.3361 47.7128C56.0692 47.9818 55.8023 48.2509 55.5209 48.529C55.2394 48.8071 54.9579 49.0852 54.6696 49.3715C54.3812 49.6579 54.0782 49.9533 53.7753 50.2486C53.4724 50.544 53.1555 50.8559 52.8312 51.1685C52.5068 51.4812 52.1755 51.8021 51.8373 52.1313C51.4991 52.4605 51.1464 52.7986 50.7867 53.1451C50.427 53.4916 50.0604 53.8463 49.6793 54.2101C49.2982 54.5738 48.91 54.9459 48.5082 55.3345C48.1063 55.723 47.6894 56.113 47.2668 56.5263C46.8435 56.9322 46.3986 57.3553 45.9546 57.7859C45.5029 58.2173 45.0374 58.6653 44.565 59.1215C44.085 59.5784 43.5987 60.0511 43.0903 60.5336C42.5819 61.0161 42.0673 61.5144 41.5313 62.03C40.9952 62.5455 40.4446 63.0701 39.8809 63.6188C39.3165 64.1599 38.7314 64.7258 38.1393 65.3C37.5396 65.8749 36.927 66.4739 36.2996 67.0819C36.2996 67.0819 36.2661 67.0548 36.1991 67.0005C36.1322 66.9462 36.0395 66.864 35.9132 66.7547C35.7869 66.6454 35.6347 66.5082 35.4575 66.3506C35.2803 66.193 35.0772 66.0075 34.8414 65.8025C34.6132 65.5966 34.359 65.3629 34.0806 65.1164C33.8022 64.8698 33.5048 64.5872 33.1838 64.2992C32.8621 64.0036 32.523 63.687 32.167 63.3568C31.8104 63.0191 31.4294 62.6684 31.0386 62.296C30.6477 61.9236 30.2323 61.5384 29.8072 61.1314C29.3821 60.7243 28.9404 60.3035 28.4887 59.861C28.0378 59.4261 27.5693 58.97 27.0918 58.4996C26.6143 58.0292 26.1285 57.5521 25.6328 57.0531C25.1378 56.5616 24.633 56.0482 24.1205 55.5356C23.6081 55.023 23.0934 54.4879 22.5627 53.9467C22.0397 53.4047 21.5085 52.8559 20.9763 52.2997C20.4442 51.7434 19.9106 51.172 19.377 50.6007C18.8434 50.0293 18.3085 49.4429 17.7735 48.8565C17.2384 48.2702 16.7026 47.6763 16.1738 47.0741C15.6449 46.4719 15.116 45.8697 14.5864 45.2599C14.0568 44.6502 13.5427 44.039 13.0284 43.4278C12.5141 42.8166 12.0141 42.1964 11.5151 41.5837C11.0161 40.9711 10.5317 40.3494 10.0556 39.7345C9.57946 39.1195 9.11094 38.5039 8.65775 37.8868C8.20456 37.2697 7.75976 36.6593 7.33786 36.0468C6.90833 35.4349 6.50253 34.8284 6.10501 34.2286C5.70749 33.6289 5.3329 33.0269 4.97431 32.431C4.61572 31.8351 4.2738 31.2528 3.95487 30.6682C3.63667 30.0912 3.33379 29.5126 3.05525 28.947C2.77671 28.3813 2.52253 27.8284 2.29202 27.2808C2.06151 26.7333 1.85531 26.1986 1.67283 25.6692C1.49035 25.1397 1.34069 24.6299 1.21461 24.1254C1.08853 23.6209 0.994515 23.1285 0.925566 22.6564C0.832172 22.012 0.77079 21.3796 0.733797 20.7601C0.696073 20.133 0.675034 19.5196 0.68534 18.9107C0.695646 18.3017 0.722769 17.7064 0.781105 17.1156C0.83944 16.5248 0.906884 15.9484 1.00634 15.384C1.1058 14.8196 1.2212 14.2612 1.36178 13.7233C1.50163 13.1778 1.65899 12.6533 1.83996 12.1342C2.02093 11.6151 2.21861 11.1096 2.43305 10.6176C2.6475 10.1257 2.87876 9.64734 3.13433 9.18179C3.3899 8.71624 3.65527 8.27251 3.93668 7.83485C4.21809 7.39719 4.51685 6.9807 4.83247 6.57772C5.14809 6.17473 5.48059 5.78529 5.82278 5.41772C6.16498 5.05015 6.52394 4.69615 6.90034 4.36326C7.26911 4.03111 7.65452 3.71256 8.0575 3.41508C8.45284 3.11834 8.86488 2.83513 9.28679 2.57381C9.7087 2.31249 10.1405 2.07298 10.5813 1.84781C11.0229 1.63018 11.4736 1.42686 11.9341 1.24538C12.3946 1.06391 12.8649 0.904317 13.3374 0.767267C13.8176 0.629476 14.3001 0.514242 14.7923 0.420878C15.2845 0.327515 15.7865 0.256029 16.2914 0.214621C16.7956 0.165684 17.3104 0.146109 17.8197 0.149869C18.3367 0.152888 18.8559 0.178527 19.3772 0.226715C19.8986 0.274903 20.4305 0.352459 20.9646 0.452602C21.4987 0.552746 22.0281 0.683711 22.5674 0.836551C23.1066 0.989391 23.6411 1.17302 24.1778 1.3793C24.7145 1.58558 25.254 1.822 25.7965 2.0885C26.339 2.35501 26.8763 2.64481 27.4171 2.97228C27.9571 3.29223 28.4931 3.65063 29.0237 4.03228C29.5619 4.41318 30.0877 4.82566 30.6165 5.26828C31.1453 5.71089 31.6694 6.18431 32.1964 6.6879C32.7158 7.19222 33.2386 7.73425 33.7486 8.30028C34.2585 8.86631 34.7644 9.47069 35.2664 10.1135C35.7676 10.7488 36.2649 11.4225 36.7491 12.1202L36.7407 12.1134Z" fill="#D98097"/>
</svg>
