<svg width="571" height="189" viewBox="0 0 571 189" fill="none" xmlns="http://www.w3.org/2000/svg">
<rect x="68.9485" y="14.6006" width="433.971" height="102.206" rx="51.1031" fill="white"/>
<path d="M150.062 82H144.842V45.17H131.734C131.464 47.2967 131.174 49.5393 130.864 51.898C130.555 54.218 130.226 56.5187 129.878 58.8C129.569 61.0813 129.26 63.2273 128.95 65.238C128.641 67.2487 128.332 69.008 128.022 70.516C127.52 73.1067 126.901 75.3107 126.166 77.128C125.432 78.9453 124.446 80.318 123.208 81.246C122.01 82.174 120.424 82.638 118.452 82.638C117.795 82.638 117.118 82.5607 116.422 82.406C115.765 82.29 115.185 82.1353 114.682 81.942V77.592C115.108 77.7853 115.591 77.9593 116.132 78.114C116.674 78.23 117.254 78.288 117.872 78.288C119.032 78.288 119.941 77.824 120.598 76.896C121.294 75.9293 121.836 74.75 122.222 73.358C122.609 71.9273 122.938 70.516 123.208 69.124C123.44 68.0027 123.711 66.514 124.02 64.658C124.33 62.7633 124.658 60.5593 125.006 58.046C125.393 55.5327 125.78 52.8067 126.166 49.868C126.592 46.8907 126.998 43.7973 127.384 40.588H150.062V82ZM213.109 61.236C213.109 64.4453 212.722 67.3647 211.949 69.994C211.175 72.6233 210.015 74.8853 208.469 76.78C206.922 78.636 205.008 80.0667 202.727 81.072C200.484 82.0773 197.855 82.58 194.839 82.58C190.895 82.58 187.569 81.768 184.863 80.144C182.195 78.52 180.145 76.2193 178.715 73.242C177.284 70.2647 176.491 66.746 176.337 62.686H166.535V82H161.315V40.588H166.535V58.104H176.453C176.723 54.4307 177.574 51.2407 179.005 48.534C180.435 45.7887 182.465 43.6813 185.095 42.212C187.724 40.704 190.933 39.95 194.723 39.95C198.705 39.95 202.05 40.8393 204.757 42.618C207.502 44.358 209.571 46.8327 210.963 50.042C212.393 53.2127 213.109 56.944 213.109 61.236ZM181.789 61.236C181.789 64.716 182.233 67.7127 183.123 70.226C184.051 72.7393 185.462 74.6727 187.357 76.026C189.29 77.3793 191.726 78.056 194.665 78.056C197.681 78.056 200.136 77.3793 202.031 76.026C203.964 74.6727 205.375 72.7393 206.265 70.226C207.193 67.7127 207.657 64.716 207.657 61.236C207.657 57.756 207.212 54.7787 206.323 52.304C205.433 49.7907 204.041 47.8767 202.147 46.562C200.252 45.2087 197.797 44.532 194.781 44.532C191.803 44.532 189.348 45.2087 187.415 46.562C185.481 47.8767 184.051 49.7907 183.123 52.304C182.233 54.7787 181.789 57.756 181.789 61.236ZM222.317 82V40.588H246.909V45.17H227.537V58.104H233.685C237.822 58.104 241.031 58.626 243.313 59.67C245.594 60.6753 247.179 62.0673 248.069 63.846C248.958 65.586 249.403 67.5967 249.403 69.878C249.403 72.3913 248.9 74.5567 247.895 76.374C246.928 78.1913 245.343 79.5833 243.139 80.55C240.935 81.5167 238.035 82 234.439 82H222.317ZM233.917 77.534C237.629 77.534 240.239 76.9153 241.747 75.678C243.255 74.402 244.009 72.4687 244.009 69.878C244.009 68.0993 243.641 66.688 242.907 65.644C242.211 64.5613 241.051 63.788 239.427 63.324C237.841 62.86 235.715 62.628 233.047 62.628H227.537V77.534H233.917ZM294.134 61.236C294.134 64.4453 293.728 67.3647 292.916 69.994C292.104 72.5847 290.886 74.8273 289.262 76.722C287.677 78.6167 285.686 80.0667 283.288 81.072C280.93 82.0773 278.184 82.58 275.052 82.58C271.804 82.58 268.982 82.0773 266.584 81.072C264.187 80.028 262.196 78.578 260.61 76.722C259.025 74.8273 257.846 72.5653 257.072 69.936C256.299 67.3067 255.912 64.3873 255.912 61.178C255.912 56.9247 256.608 53.2127 258 50.042C259.392 46.8713 261.5 44.3967 264.322 42.618C267.184 40.8393 270.78 39.95 275.11 39.95C279.248 39.95 282.728 40.8393 285.55 42.618C288.373 44.358 290.5 46.8327 291.93 50.042C293.4 53.2127 294.134 56.944 294.134 61.236ZM261.422 61.236C261.422 64.716 261.906 67.7127 262.872 70.226C263.839 72.7393 265.328 74.6727 267.338 76.026C269.388 77.3793 271.959 78.056 275.052 78.056C278.184 78.056 280.736 77.3793 282.708 76.026C284.719 74.6727 286.208 72.7393 287.174 70.226C288.141 67.7127 288.624 64.716 288.624 61.236C288.624 56.016 287.542 51.9367 285.376 48.998C283.211 46.0207 279.789 44.532 275.11 44.532C271.978 44.532 269.388 45.2087 267.338 46.562C265.328 47.8767 263.839 49.7907 262.872 52.304C261.906 54.7787 261.422 57.756 261.422 61.236ZM315.145 40.588C318.586 40.588 321.467 40.9167 323.787 41.574C326.145 42.2313 327.905 43.314 329.065 44.822C330.263 46.33 330.863 48.3407 330.863 50.854C330.863 52.478 330.553 53.928 329.935 55.204C329.355 56.4413 328.465 57.4853 327.267 58.336C326.107 59.148 324.676 59.7087 322.975 60.018V60.308C324.715 60.5787 326.281 61.0813 327.673 61.816C329.103 62.5507 330.225 63.5947 331.037 64.948C331.849 66.3013 332.255 68.0607 332.255 70.226C332.255 72.7393 331.675 74.8853 330.515 76.664C329.355 78.404 327.692 79.738 325.527 80.666C323.4 81.5553 320.848 82 317.871 82H303.313V40.588H315.145ZM316.189 58.22C319.746 58.22 322.182 57.6593 323.497 56.538C324.811 55.378 325.469 53.6767 325.469 51.434C325.469 49.1527 324.657 47.5287 323.033 46.562C321.447 45.5567 318.895 45.054 315.377 45.054H308.533V58.22H316.189ZM308.533 62.57V77.592H316.885C320.558 77.592 323.11 76.8767 324.541 75.446C325.971 74.0153 326.687 72.14 326.687 69.82C326.687 68.3507 326.358 67.0747 325.701 65.992C325.082 64.9093 324.019 64.078 322.511 63.498C321.041 62.8793 319.031 62.57 316.479 62.57H308.533ZM372.703 82H367.483V62.686H346.255V82H341.035V40.588H346.255V58.104H367.483V40.588H372.703V82ZM410.01 82L405.022 69.182H388.608L383.678 82H378.4L394.582 40.414H399.28L415.404 82H410.01ZM398.816 52.014C398.7 51.7047 398.506 51.144 398.236 50.332C397.965 49.52 397.694 48.6887 397.424 47.838C397.192 46.9487 396.998 46.272 396.844 45.808C396.65 46.5813 396.438 47.374 396.206 48.186C396.012 48.9593 395.8 49.6747 395.568 50.332C395.374 50.9893 395.2 51.55 395.046 52.014L390.348 64.542H403.456L398.816 52.014ZM433.539 64.832L422.809 82H416.719L428.319 63.904C426.849 63.4013 425.457 62.7053 424.143 61.816C422.867 60.9267 421.823 59.7087 421.011 58.162C420.199 56.6153 419.793 54.624 419.793 52.188C419.793 48.4373 421.088 45.576 423.679 43.604C426.269 41.5933 430.136 40.588 435.279 40.588H446.879V82H441.659V64.832H433.539ZM435.395 45.054C433.191 45.054 431.335 45.3053 429.827 45.808C428.319 46.3107 427.159 47.1033 426.347 48.186C425.573 49.2687 425.187 50.68 425.187 52.42C425.187 54.972 426.037 56.944 427.739 58.336C429.44 59.728 432.069 60.424 435.627 60.424H441.659V45.054H435.395Z" fill="#D98097"/>
<path d="M120.749 171V135.3H141.949V139.25H125.249V150.4H130.549C134.115 150.4 136.882 150.85 138.849 151.75C140.815 152.617 142.182 153.817 142.949 155.35C143.715 156.85 144.099 158.583 144.099 160.55C144.099 162.717 143.665 164.583 142.799 166.15C141.965 167.717 140.599 168.917 138.699 169.75C136.799 170.583 134.299 171 131.199 171H120.749ZM130.749 167.15C133.949 167.15 136.199 166.617 137.499 165.55C138.799 164.45 139.449 162.783 139.449 160.55C139.449 159.017 139.132 157.8 138.499 156.9C137.899 155.967 136.899 155.3 135.499 154.9C134.132 154.5 132.299 154.3 129.999 154.3H125.249V167.15H130.749ZM166.46 160.85C165.394 163.217 164.31 165.2 163.21 166.8C162.144 168.367 160.877 169.55 159.41 170.35C157.944 171.117 156.077 171.5 153.81 171.5C152.877 171.5 151.994 171.433 151.16 171.3C150.36 171.167 149.627 170.983 148.96 170.75V166.3C149.627 166.6 150.344 166.85 151.11 167.05C151.877 167.217 152.677 167.3 153.51 167.3C154.744 167.3 155.794 167.133 156.66 166.8C157.56 166.433 158.344 165.85 159.01 165.05C159.71 164.25 160.36 163.183 160.96 161.85L147.21 135.3H152.16L162.11 154.95C162.244 155.183 162.377 155.467 162.51 155.8C162.644 156.1 162.777 156.417 162.91 156.75C163.077 157.083 163.21 157.4 163.31 157.7H163.51C163.61 157.467 163.71 157.2 163.81 156.9C163.944 156.567 164.06 156.25 164.16 155.95C164.294 155.617 164.41 155.333 164.51 155.1L173.11 135.3H177.86L166.46 160.85ZM206.962 171H201.862L192.412 155.5L182.812 171H178.062L189.912 152.4L178.812 135.3H183.812L192.562 149.3L201.362 135.3H206.112L195.062 152.3L206.962 171ZM232.158 135.3V139.3H216.508V171H212.008V135.3H232.158ZM257.114 171L252.814 159.95H238.664L234.414 171H229.864L243.814 135.15H247.864L261.764 171H257.114ZM247.464 145.15C247.364 144.883 247.197 144.4 246.964 143.7C246.73 143 246.497 142.283 246.264 141.55C246.064 140.783 245.897 140.2 245.764 139.8C245.597 140.467 245.414 141.15 245.214 141.85C245.047 142.517 244.864 143.133 244.664 143.7C244.497 144.267 244.347 144.75 244.214 145.15L240.164 155.95H251.464L247.464 145.15ZM292.347 171H287.847V139.25H276.547C276.314 141.083 276.064 143.017 275.797 145.05C275.53 147.05 275.247 149.033 274.947 151C274.68 152.967 274.414 154.817 274.147 156.55C273.88 158.283 273.614 159.8 273.347 161.1C272.914 163.333 272.38 165.233 271.747 166.8C271.114 168.367 270.264 169.55 269.197 170.35C268.164 171.15 266.797 171.55 265.097 171.55C264.53 171.55 263.947 171.483 263.347 171.35C262.78 171.25 262.28 171.117 261.847 170.95V167.2C262.214 167.367 262.63 167.517 263.097 167.65C263.564 167.75 264.064 167.8 264.597 167.8C265.597 167.8 266.38 167.4 266.947 166.6C267.547 165.767 268.014 164.75 268.347 163.55C268.68 162.317 268.964 161.1 269.197 159.9C269.397 158.933 269.63 157.65 269.897 156.05C270.164 154.417 270.447 152.517 270.747 150.35C271.08 148.183 271.414 145.833 271.747 143.3C272.114 140.733 272.464 138.067 272.797 135.3H292.347V171ZM313.348 171H308.848V139.25H297.698V135.3H324.448V139.25H313.348V171ZM349.781 171H329.831V135.3H349.781V139.25H334.331V150.4H348.881V154.3H334.331V167.05H349.781V171ZM367.064 135.3C371.731 135.3 375.131 136.217 377.264 138.05C379.397 139.883 380.464 142.467 380.464 145.8C380.464 147.267 380.214 148.683 379.714 150.05C379.247 151.383 378.464 152.583 377.364 153.65C376.264 154.717 374.797 155.567 372.964 156.2C371.131 156.8 368.881 157.1 366.214 157.1H362.114V171H357.614V135.3H367.064ZM366.664 139.15H362.114V153.25H365.714C367.981 153.25 369.864 153.017 371.364 152.55C372.864 152.05 373.981 151.267 374.714 150.2C375.447 149.133 375.814 147.733 375.814 146C375.814 143.7 375.081 141.983 373.614 140.85C372.147 139.717 369.831 139.15 366.664 139.15ZM387.937 135.3H392.137V154.9C392.137 155.733 392.121 156.65 392.087 157.65C392.087 158.617 392.071 159.583 392.037 160.55C392.004 161.517 391.954 162.383 391.887 163.15C391.854 163.883 391.821 164.45 391.787 164.85H391.987L411.637 135.3H416.637V171H412.437V151.6C412.437 150.7 412.454 149.733 412.487 148.7C412.521 147.633 412.554 146.617 412.587 145.65C412.654 144.65 412.704 143.767 412.737 143C412.771 142.233 412.804 141.667 412.837 141.3H412.637L392.937 171H387.937V135.3ZM437.016 156.2L427.766 171H422.516L432.516 155.4C431.25 154.967 430.05 154.367 428.916 153.6C427.816 152.833 426.916 151.783 426.216 150.45C425.516 149.117 425.166 147.4 425.166 145.3C425.166 142.067 426.283 139.6 428.516 137.9C430.75 136.167 434.083 135.3 438.516 135.3H448.516V171H444.016V156.2H437.016ZM438.616 139.15C436.716 139.15 435.116 139.367 433.816 139.8C432.516 140.233 431.516 140.917 430.816 141.85C430.15 142.783 429.816 144 429.816 145.5C429.816 147.7 430.55 149.4 432.016 150.6C433.483 151.8 435.75 152.4 438.816 152.4H444.016V139.15H438.616Z" fill="white"/>
<path d="M25.2796 107.527C25.0001 106.634 24.761 105.772 24.5603 104.932C24.3596 104.092 24.1972 103.274 24.0754 102.486C23.9535 101.699 23.859 100.927 23.805 100.187C23.7511 99.4457 23.7267 98.7295 23.7407 98.0352C23.7546 97.341 23.795 96.6766 23.8682 96.0313C23.9413 95.3859 24.0441 94.765 24.1733 94.1741C24.3057 93.5777 24.4646 93.0113 24.6475 92.4662C24.8305 91.921 25.0431 91.4003 25.2799 90.9009C25.5166 90.4016 25.7743 89.929 26.0529 89.4834C26.3315 89.0377 26.6343 88.6134 26.958 88.2159C27.2818 87.8184 27.621 87.4446 27.9844 87.0921C28.3445 86.7452 28.7234 86.4164 29.1145 86.1169C29.5056 85.8174 29.9209 85.5392 30.343 85.2871C30.7651 85.0349 31.2027 84.8066 31.6557 84.6019C32.1088 84.3972 32.5686 84.2185 33.0353 84.066C33.5052 83.908 33.9873 83.7793 34.4763 83.6766C34.9653 83.5739 35.4587 83.4886 35.9645 83.4326C36.4649 83.3734 36.972 83.3403 37.486 83.3334C37.9945 83.3233 38.5097 83.3393 39.0231 83.3838C39.5397 83.4227 40.0546 83.49 40.5707 83.5804C41.0869 83.6708 41.6043 83.7842 42.12 83.926C42.6356 84.0679 43.147 84.2297 43.6512 84.4167C44.1554 84.6037 44.6609 84.8136 45.1559 85.0545C45.6541 85.2898 46.145 85.5504 46.6231 85.8332C47.1067 86.1193 47.5773 86.4275 48.0408 86.7611C48.5042 87.0947 48.9548 87.4503 49.3895 87.8339C49.8242 88.2174 50.2548 88.6207 50.6606 89.0541C51.0697 89.482 51.4682 89.9409 51.8485 90.4188C52.2288 90.8967 52.5931 91.4023 52.936 91.9325C53.2788 92.4627 53.6033 93.0119 53.9119 93.5889C54.215 94.1628 54.5022 94.7645 54.7592 95.3931C55.0194 96.0161 55.255 96.6693 55.4723 97.3415C55.5828 97.6935 55.6931 98.0455 55.799 98.38C55.9017 98.7201 56.0055 99.0459 56.1004 99.3742C56.1986 99.6969 56.2913 100.016 56.3872 100.33C56.4776 100.641 56.5712 100.947 56.6539 101.246C56.7366 101.545 56.8224 101.838 56.9083 102.132C56.9942 102.425 57.0692 102.712 57.1473 102.994C57.2255 103.275 57.295 103.559 57.3677 103.838C57.4403 104.116 57.5075 104.391 57.5747 104.667C57.642 104.942 57.7091 105.217 57.7709 105.49C57.8326 105.762 57.8998 106.037 57.9615 106.309C58.0232 106.581 58.085 106.853 58.1435 107.131C58.2021 107.409 58.2638 107.681 58.3137 107.961C58.3723 108.239 58.4276 108.522 58.483 108.805C58.5383 109.088 58.5904 109.377 58.6426 109.666C58.6947 109.955 58.7492 110.252 58.8036 110.55C58.858 110.847 58.9092 111.15 58.9627 111.462C59.0162 111.774 59.0697 112.085 59.1223 112.411C59.1748 112.737 59.2274 113.063 59.2822 113.398C59.3371 113.733 59.391 114.082 59.4449 114.431C59.4988 114.78 59.5572 115.146 59.6124 115.518C59.6677 115.89 59.7253 116.27 59.7851 116.66C59.8448 117.049 59.9037 117.453 59.9648 117.865C60.026 118.277 60.0894 118.698 60.1518 119.133C60.2143 119.568 60.2791 120.013 60.3484 120.474C60.4177 120.935 60.4806 121.407 60.5567 121.895C60.6273 122.379 60.6993 122.886 60.7767 123.397C60.851 123.913 60.9298 124.446 61.0109 124.988C61.0888 125.536 61.1743 126.095 61.2558 126.674C61.3373 127.253 61.4265 127.845 61.5171 128.459C61.6077 129.073 61.6973 129.701 61.797 130.35C61.8911 130.995 61.9922 131.667 62.0954 132.348C62.1955 133.034 62.3056 133.74 62.4148 134.461C62.4148 134.461 62.3801 134.471 62.3107 134.49C62.2414 134.509 62.1407 134.532 62.0052 134.565C61.8697 134.598 61.7028 134.635 61.5098 134.679C61.3169 134.723 61.0924 134.771 60.8388 134.832C60.5884 134.887 60.3065 134.947 60.0041 135.016C59.7016 135.086 59.3655 135.151 59.0143 135.23C58.6576 135.305 58.2781 135.382 57.8813 135.464C57.479 135.543 57.0562 135.632 56.6137 135.717C56.1713 135.802 55.7083 135.898 55.2257 135.989C54.7432 136.081 54.2433 136.177 53.7238 136.27C53.2097 136.365 52.6729 136.462 52.1219 136.559C51.5709 136.656 51.0113 136.754 50.432 136.849C49.8582 136.948 49.2648 137.042 48.6682 137.142C48.0716 137.242 47.4587 137.332 46.8338 137.43C46.2121 137.523 45.5819 137.618 44.9461 137.71C44.3103 137.802 43.6635 137.888 43.0167 137.974C42.37 138.059 41.7124 138.139 41.0547 138.218C40.397 138.297 39.7339 138.374 39.0685 138.441C38.403 138.509 37.7376 138.576 37.0667 138.641C36.3958 138.705 35.7314 138.758 35.0669 138.812C34.4024 138.865 33.7388 138.904 33.0807 138.946C32.4226 138.989 31.7655 139.016 31.117 139.042C30.4685 139.068 29.8231 139.088 29.1842 139.096C28.5453 139.105 27.9151 139.112 27.2945 139.102C26.6706 139.097 26.0619 139.079 25.4618 139.058C24.8617 139.038 24.2711 139.001 23.6925 138.956C23.1138 138.911 22.5525 138.861 22.0008 138.794C21.4545 138.731 20.9147 138.656 20.3954 138.571C19.876 138.487 19.3772 138.391 18.8935 138.283C18.4097 138.174 17.9465 138.055 17.4984 137.922C17.0503 137.79 16.6313 137.645 16.2274 137.486C15.8235 137.327 15.4434 137.152 15.0893 136.97C14.6062 136.722 14.1467 136.457 13.7079 136.182C13.2635 135.904 12.8365 135.621 12.4278 135.319C12.019 135.017 11.6277 134.71 11.2545 134.384C10.8814 134.058 10.5224 133.733 10.1871 133.392C9.8518 133.051 9.52835 132.702 9.23093 132.346C8.92804 131.986 8.64796 131.625 8.38294 131.251C8.11792 130.876 7.8702 130.497 7.63984 130.113C7.40949 129.729 7.19654 129.34 7.00405 128.941C6.81156 128.541 6.63864 128.146 6.47763 127.743C6.31661 127.34 6.17839 126.935 6.05751 126.525C5.93663 126.115 5.83312 125.701 5.74918 125.29C5.66524 124.88 5.59864 124.464 5.55484 124.047C5.50784 123.636 5.47814 123.219 5.47128 122.801C5.46121 122.389 5.46843 121.972 5.49531 121.558C5.52218 121.145 5.56865 120.736 5.62927 120.327C5.69535 119.922 5.7756 119.517 5.87543 119.116C5.97526 118.715 6.09468 118.318 6.23052 117.931C6.36956 117.538 6.52505 117.154 6.7001 116.775C6.87515 116.395 7.06982 116.019 7.28636 115.656C7.49742 115.29 7.73355 114.93 7.98289 114.586C8.23544 114.236 8.50442 113.896 8.78978 113.565C9.07514 113.234 9.38558 112.91 9.71242 112.596C10.0393 112.282 10.3848 111.985 10.7499 111.693C11.115 111.401 11.4988 111.127 11.899 110.862C12.2992 110.597 12.7212 110.345 13.1652 110.106C13.6091 109.866 14.0664 109.642 14.5509 109.433C15.03 109.221 15.5332 109.03 16.0496 108.855C16.5692 108.674 17.1042 108.516 17.6612 108.371C18.2181 108.227 18.7938 108.1 19.3913 107.986C19.9856 107.877 20.6073 107.785 21.2389 107.712C21.8706 107.64 22.5264 107.589 23.2064 107.56C23.8809 107.527 24.5796 107.515 25.2883 107.525L25.2796 107.527Z" fill="white"/>
<path d="M546.318 19.3445C547.001 19.1313 547.66 18.9491 548.303 18.7962C548.945 18.6433 549.571 18.5196 550.173 18.427C550.775 18.3343 551.365 18.2626 551.932 18.2218C552.498 18.181 553.046 18.1629 553.577 18.174C554.108 18.1851 554.616 18.2164 555.109 18.2728C555.603 18.3292 556.077 18.4082 556.529 18.5074C556.985 18.6091 557.418 18.7309 557.835 18.8712C558.252 19.0114 558.65 19.1744 559.031 19.3557C559.413 19.5371 559.774 19.7344 560.115 19.9478C560.455 20.1612 560.78 20.393 561.083 20.6408C561.387 20.8886 561.673 21.1482 561.942 21.4263C562.207 21.702 562.458 21.9919 562.687 22.2912C562.916 22.5904 563.128 22.9082 563.321 23.2311C563.513 23.5541 563.688 23.8888 563.844 24.2354C564 24.5819 564.136 24.9337 564.253 25.2907C564.373 25.6501 564.471 26.0188 564.549 26.3928C564.628 26.7668 564.692 27.1442 564.735 27.531C564.78 27.9136 564.805 28.3015 564.81 28.6945C564.817 29.0833 564.805 29.4773 564.77 29.8698C564.74 30.2649 564.688 30.6585 564.619 31.0531C564.549 31.4478 564.462 31.8434 564.354 32.2376C564.245 32.6318 564.121 33.0227 563.977 33.4081C563.834 33.7935 563.673 34.18 563.489 34.5584C563.308 34.9392 563.109 35.3144 562.892 35.6798C562.673 36.0493 562.437 36.409 562.182 36.7632C561.926 37.1173 561.654 37.4617 561.361 37.7938C561.067 38.1259 560.758 38.4549 560.427 38.765C560.099 39.0775 559.748 39.3819 559.382 39.6724C559.017 39.9629 558.63 40.2412 558.224 40.503C557.818 40.7648 557.398 41.0126 556.957 41.2482C556.518 41.4796 556.058 41.6988 555.577 41.8949C555.1 42.0934 554.6 42.2732 554.086 42.4389C553.817 42.5231 553.548 42.6072 553.292 42.688C553.032 42.7663 552.783 42.8454 552.531 42.9178C552.285 42.9927 552.04 43.0633 551.8 43.1365C551.562 43.2054 551.329 43.2768 551.1 43.3398C550.871 43.4028 550.647 43.4683 550.423 43.5338C550.198 43.5993 549.978 43.6564 549.763 43.7159C549.548 43.7755 549.33 43.8285 549.117 43.8839C548.905 43.9393 548.694 43.9905 548.483 44.0417C548.273 44.0929 548.062 44.1441 547.854 44.1911C547.646 44.2381 547.435 44.2893 547.227 44.3363C547.019 44.3834 546.811 44.4304 546.599 44.475C546.386 44.5196 546.178 44.5666 545.964 44.6046C545.752 44.6491 545.535 44.6913 545.318 44.7334C545.102 44.7756 544.881 44.8152 544.66 44.8549C544.439 44.8946 544.212 44.936 543.984 44.9774C543.757 45.0188 543.525 45.0578 543.286 45.0985C543.048 45.1392 542.81 45.1799 542.56 45.2199C542.311 45.2599 542.062 45.2998 541.806 45.3416C541.55 45.3833 541.283 45.4243 541.016 45.4652C540.749 45.5062 540.469 45.5507 540.184 45.5927C539.9 45.6347 539.609 45.6784 539.311 45.7239C539.013 45.7693 538.705 45.8141 538.39 45.8606C538.074 45.907 537.752 45.9552 537.42 46.0027C537.087 46.0502 536.747 46.0994 536.394 46.1521C536.042 46.2048 535.68 46.2526 535.308 46.3105C534.937 46.3642 534.549 46.4188 534.159 46.4777C533.764 46.5342 533.357 46.5941 532.942 46.6557C532.523 46.7149 532.095 46.78 531.652 46.8419C531.209 46.9038 530.757 46.9717 530.288 47.0405C529.818 47.1094 529.338 47.1775 528.841 47.2532C528.348 47.3248 527.834 47.4016 527.313 47.4801C526.789 47.5562 526.248 47.6399 525.697 47.7229C525.697 47.7229 525.69 47.6964 525.675 47.6434C525.661 47.5903 525.643 47.5133 525.618 47.4097C525.593 47.306 525.565 47.1784 525.531 47.0308C525.498 46.8832 525.461 46.7116 525.415 46.5176C525.372 46.3261 525.327 46.1105 525.274 45.8792C525.221 45.6479 525.171 45.3908 525.112 45.1222C525.054 44.8493 524.996 44.5591 524.933 44.2556C524.873 43.9479 524.806 43.6246 524.741 43.2862C524.676 42.9478 524.603 42.5937 524.533 42.2247C524.464 41.8556 524.391 41.4733 524.32 41.0759C524.247 40.6828 524.173 40.2722 524.1 39.8508C524.026 39.4294 523.951 39.0014 523.879 38.5584C523.804 38.1196 523.732 37.6658 523.657 37.2095C523.581 36.7532 523.512 36.2845 523.437 35.8066C523.367 35.3312 523.294 34.8491 523.224 34.3629C523.154 33.8767 523.089 33.382 523.024 32.8874C522.959 32.3928 522.899 31.8899 522.839 31.3869C522.778 30.884 522.72 30.3768 522.669 29.868C522.618 29.3591 522.567 28.8502 522.518 28.3371C522.469 27.8241 522.429 27.316 522.389 26.8078C522.348 26.2997 522.319 25.7922 522.287 25.2889C522.255 24.7857 522.234 24.2831 522.215 23.7872C522.196 23.2913 522.181 22.7979 522.175 22.3093C522.168 21.8207 522.164 21.3388 522.172 20.8642C522.176 20.3872 522.19 19.9217 522.206 19.4628C522.222 19.004 522.251 18.5524 522.286 18.11C522.321 17.6675 522.359 17.2383 522.411 16.8165C522.459 16.3988 522.517 15.9861 522.582 15.589C522.647 15.1919 522.72 14.8106 522.804 14.4407C522.887 14.0709 522.979 13.7168 523.08 13.3742C523.182 13.0316 523.293 12.7113 523.415 12.4026C523.537 12.0939 523.671 11.8033 523.81 11.5326C524 11.1634 524.203 10.8122 524.414 10.4768C524.627 10.1372 524.843 9.81092 525.075 9.49856C525.306 9.1862 525.541 8.88714 525.79 8.60202C526.04 8.31689 526.289 8.04258 526.55 7.78643C526.811 7.53027 527.078 7.28317 527.35 7.05597C527.625 6.8246 527.901 6.61067 528.188 6.40827C528.475 6.20586 528.765 6.01668 529.059 5.84079C529.352 5.6649 529.65 5.50232 529.955 5.3554C530.261 5.20847 530.563 5.07651 530.872 4.95365C531.18 4.83079 531.49 4.72537 531.803 4.6332C532.117 4.54104 532.434 4.46217 532.748 4.39826C533.062 4.33434 533.379 4.28369 533.698 4.25047C534.013 4.2148 534.331 4.19237 534.651 4.1874C534.966 4.17998 535.285 4.18578 535.601 4.2066C535.917 4.22743 536.23 4.26323 536.543 4.30986C536.853 4.36066 537.162 4.4223 537.469 4.4989C537.775 4.5755 538.079 4.66708 538.375 4.77121C538.675 4.8778 538.968 4.99695 539.259 5.13106C539.549 5.26517 539.836 5.41428 540.114 5.5801C540.394 5.74173 540.668 5.92253 540.931 6.11343C541.199 6.30678 541.459 6.51269 541.711 6.73111C541.964 6.94954 542.212 7.18714 542.452 7.43728C542.692 7.68742 542.918 7.95181 543.142 8.23121C543.365 8.5106 543.574 8.80424 543.777 9.11045C543.979 9.41666 544.171 9.73953 544.354 10.0792C544.537 10.4188 544.708 10.7686 544.868 11.1393C545.029 11.5057 545.175 11.8906 545.309 12.2856C545.447 12.6831 545.567 13.0923 545.677 13.5183C545.787 13.9443 545.884 14.3846 545.971 14.8415C546.053 15.2961 546.124 15.7715 546.179 16.2546C546.233 16.7376 546.272 17.2391 546.294 17.7591C546.319 18.2749 546.327 18.8092 546.32 19.3511L546.318 19.3445Z" fill="white"/>
</svg>
